<svg xmlns="http://www.w3.org/2000/svg" viewBox="0 0 309.86 309.86"><g id="Capa_2" data-name="Capa 2"><g id="favicon"><circle cx="154.93" cy="154.93" r="150.43" stroke="#000" stroke-miterlimit="10" stroke-width="9"/><path d="M73.94,144.93l33.58-39.81a71.06,71.06,0,0,0,6.23-8,9.27,9.27,0,0,0,1.23-4.7,7.74,7.74,0,0,0-3.81-7,18.75,18.75,0,0,0-6.67-1.7V81.53h34.22v2.18a17.39,17.39,0,0,0-11,4.73,132.62,132.62,0,0,0-10.64,11.28L91.4,129.2,128,184.92l4.52,6.92a49.55,49.55,0,0,0,10.4,11.57,28,28,0,0,0,5.72,3.64,24.45,24.45,0,0,0,6.19,1.66v2.18H102.36v-2.18q6-.57,8.57-2.37a6,6,0,0,0,2.62-5.3q0-3.79-3.25-9.67-1.59-2.85-6-9.86T97,170.14L79.1,143.7l-5.16,6.06v31.37a82,82,0,0,0,.91,14.36,17.24,17.24,0,0,0,3.38,7.73,13.52,13.52,0,0,0,5,3.93,21.46,21.46,0,0,0,7.42,1.56v2.18H39.88v-2.18a21.52,21.52,0,0,0,7.43-1.56,13.6,13.6,0,0,0,5-3.93,16.48,16.48,0,0,0,3.41-7.68,85.76,85.76,0,0,0,.88-14.41V111.28a85.7,85.7,0,0,0-.88-14.4,16.48,16.48,0,0,0-3.41-7.68,12.76,12.76,0,0,0-5-4,22.54,22.54,0,0,0-7.39-1.51V81.53H90.61v2.18a22,22,0,0,0-7.34,1.51,13.39,13.39,0,0,0-5,4,17.24,17.24,0,0,0-3.38,7.73,81.87,81.87,0,0,0-.91,14.35Z" fill="#fff" stroke="#fff" stroke-miterlimit="10" stroke-width="5.61"/><path d="M164.8,234.21,213.62,75.65h5.08L169.8,234.21Z" fill="#fff" stroke="#fff" stroke-miterlimit="10" stroke-width="5.61"/><path d="M228.67,198.48V191L279,151.85l-50.33-40.19V91.76L296,145.59v1.24Z" fill="#fff"/></g></g></svg>