<?xml version="1.0" encoding="utf-8"?>
<!-- Generator: Adobe Illustrator 24.3.0, SVG Export Plug-In . SVG Version: 6.00 Build 0)  -->
<svg version="1.1" id="Capa_1" xmlns="http://www.w3.org/2000/svg" xmlns:xlink="http://www.w3.org/1999/xlink" x="0px" y="0px"
	 viewBox="0 0 762.5 140.1" style="enable-background:new 0 0 762.5 140.1;" xml:space="preserve">
<style type="text/css">
	.st0{fill:#FFFFFF;}
	.st1{enable-background:new    ;}
</style>
<g>
	<path class="st0" d="M343,38.9c-1.9,0-3.7,0-5.4-0.1c-1.7,0-3.1-0.1-4.2-0.2v1.5c1.3,0,2.6,0.2,3.9,0.6c0.8,0.3,1.5,1,1.8,1.8
		c0.4,1.4,0.5,2.8,0.5,4.1v41.8c0.1,3.3-0.3,6.6-1.2,9.8c-0.5,2.1-1.8,4-3.5,5.3c-1.7,1.1-3.7,1.7-5.7,1.7v1.5c4.4,0,8-1.2,10.8-3.5
		c2.7-2.3,4.6-5.4,5.4-8.9c0.4-2,0.7-4,0.9-6c0.2-2.3,0.3-4.6,0.4-7.1s0.1-4.7,0.1-6.8V46.8c-0.1-1.4,0.1-2.8,0.5-4.2
		c0.3-0.9,0.9-1.5,1.8-1.8c1.3-0.4,2.6-0.6,3.9-0.6v-1.5l-4.4,0.2C346.7,38.9,344.9,38.9,343,38.9z"/>
	<path class="st0" d="M384.7,87.3c-1.1,1.1-2.4,1.9-3.8,2.4c-1.4,0.5-2.9,0.7-4.3,0.7c-2,0-4-0.7-5.6-1.9c-1.9-1.5-3.4-3.4-4.3-5.7
		c-1.2-2.8-1.8-5.8-1.7-8.9c0-0.9,0-1.8,0-2.7c0-0.8,0.1-1.5,0.2-2.2H389c0-5.7-1.3-9.9-3.8-12.6c-2.5-2.7-6-4.1-10.4-4.1
		c-3.2-0.1-6.4,0.8-9.1,2.6c-2.7,1.9-4.7,4.4-6,7.4c-1.5,3.6-2.2,7.6-2.1,11.5c-0.1,3.5,0.6,7,2.1,10.2c1.3,2.9,3.4,5.3,6,7
		c2.8,1.7,6.1,2.6,9.4,2.5c4.4,0.1,8.7-1.9,11.5-5.3c1.2-1.4,2.1-3.1,2.7-4.9l-1.5-0.6C387,84.5,386,86,384.7,87.3z M368.3,57.3
		c1.8-2.3,3.9-3.5,6.2-3.5c1.6,0,3.2,0.7,4.2,1.9c1.2,1.5,2,3.2,2.4,5c0.5,2.3,0.7,4.6,0.6,6.9h-16.6
		C365.5,62.9,366.6,59.5,368.3,57.3z"/>
	<path class="st0" d="M417.7,73.3c-1.7-1.3-3.4-2.6-5.2-3.7l-4.8-3.1c-1.3-0.8-2.5-1.8-3.6-3c-0.9-1.1-1.4-2.5-1.4-3.9
		c-0.1-1.7,0.5-3.3,1.8-4.4c1.3-1,2.8-1.5,4.5-1.5c2-0.1,4,0.5,5.5,1.7c1.4,1.2,2.5,2.7,3.2,4.4c0.7,1.8,1.3,3.6,1.6,5.5h1.8
		c0-3.3,0-5.9,0.1-7.9c0-2,0.1-3.6,0.2-5.1h-1.7c-0.3,3.2-1.3,4.1-3,2.7c-1-0.7-2-1.3-3.1-1.8c-1.6-0.7-3.4-1-5.2-1
		c-1.9,0-3.8,0.3-5.5,1c-1.7,0.6-3.1,1.7-4.1,3.2c-1.1,1.7-1.6,3.6-1.6,5.6c-0.1,1.9,0.5,3.7,1.5,5.3c1,1.5,2.4,2.9,3.9,4
		c1.6,1.2,3.3,2.3,5.1,3.5c2.2,1.3,4.2,2.8,6.2,4.5c1.6,1.4,2.5,3.4,2.4,5.5c0.1,1.5-0.3,3-1.1,4.2c-0.6,1-1.5,1.8-2.6,2.3
		c-1,0.4-2,0.7-3.1,0.7c-2.1,0.1-4.2-0.5-5.9-1.8c-1.5-1.3-2.6-3.1-3.1-5c-0.7-2.4-1.2-4.9-1.5-7.4h-1.8c0,3.9,0,6.9-0.1,9.3
		c-0.1,2.3-0.1,4.3-0.2,5.9h1.8c0.1-0.9,0.4-1.8,0.9-2.5c0,0,0.1-0.1,0.1-0.1c0.4-0.3,0.9-0.3,1.3,0.1c0.5,0.4,1,0.8,1.6,1.1
		c0.5,0.3,1,0.6,1.6,0.9c0.9,0.4,1.9,0.6,2.9,0.8c1,0.2,2.1,0.3,3.1,0.3c2.2,0,4.3-0.4,6.3-1.2c1.9-0.8,3.5-2,4.8-3.6
		c1.3-1.7,1.9-3.7,1.8-5.9c0-1.9-0.4-3.8-1.4-5.4C420.5,75.9,419.2,74.5,417.7,73.3z"/>
	<path class="st0" d="M464.5,89.4c-1-1.5-1.4-3.3-1.2-5.1V52.5c-1.2,0.4-2.4,0.6-3.7,0.8c-1.4,0.2-2.8,0.3-4.2,0.3
		c-1.5,0-3.1-0.1-4.7-0.2V55c2.2,0,3.8,0.5,4.6,1.6c0.9,1.5,1.4,3.3,1.2,5v15.7c0,2.4-0.4,4.8-1.3,7c-0.8,1.9-2,3.6-3.6,4.9
		c-1.5,1.2-3.4,1.8-5.3,1.8c-1.4,0.1-2.8-0.3-4-1.2c-0.8-0.9-1.4-2-1.5-3.2c-0.2-1.4-0.3-2.9-0.3-4.3V52.5c-1.2,0.4-2.4,0.6-3.7,0.8
		c-1.4,0.2-2.8,0.3-4.2,0.3c-1.5,0-3.1-0.1-4.7-0.2V55c2.2,0,3.7,0.5,4.5,1.6c0.9,1.5,1.3,3.3,1.2,5v19c0,2,0.1,4,0.5,6
		c0.3,1.5,1,2.9,2,4c0.9,0.9,2,1.6,3.3,2.1c1.5,0.5,3.1,0.8,4.6,0.8c5.7,0,10.8-3.7,12.5-9.1v9c1.2-0.4,2.4-0.7,3.7-0.8
		c1.4-0.2,2.8-0.2,4.2-0.2c1.6,0,3.1,0.1,4.7,0.2V91C466.8,91,465.3,90.5,464.5,89.4z"/>
	<path class="st0" d="M449.2,41.8c1.5-1.3,2.8-2.5,3.9-3.5c1-0.9,2-1.8,2.8-2.9c0.7-0.8,1-1.7,1-2.7c0-0.8-0.4-1.5-1-2
		c-0.6-0.4-1.4-0.6-2.2-0.5c-1,0.2-1.9,0.8-2.4,1.7c-0.8,1.1-1.5,2.2-2.1,3.4c-0.7,1.3-1.5,2.9-2.4,4.6c-0.9,1.8-2.2,3.9-3.8,6.4
		l0.8,0.7C445.9,44.9,447.7,43.2,449.2,41.8z"/>
	<path class="st0" d="M495.9,73.3c-1.7-1.3-3.4-2.6-5.2-3.7l-4.8-3.1c-1.3-0.8-2.5-1.8-3.6-3c-0.9-1.1-1.4-2.5-1.4-3.9
		c-0.1-1.7,0.5-3.3,1.8-4.4c1.3-1,2.8-1.5,4.4-1.5c2-0.1,4,0.5,5.5,1.7c1.4,1.2,2.5,2.7,3.2,4.4c0.7,1.8,1.3,3.6,1.6,5.5h1.7
		c0-3.3,0-5.9,0.1-7.9c0-2,0.1-3.6,0.2-5.1h-1.8c-0.3,3.2-1.3,4.1-3,2.7c-1-0.7-2-1.3-3.1-1.8c-1.6-0.7-3.4-1-5.2-1
		c-1.9,0-3.8,0.3-5.5,1c-1.7,0.6-3.1,1.7-4.1,3.2c-1.1,1.7-1.6,3.6-1.6,5.6c-0.1,1.9,0.5,3.7,1.5,5.3c1,1.6,2.4,2.9,3.9,4
		c1.6,1.2,3.3,2.3,5.1,3.5c2.2,1.3,4.2,2.8,6.2,4.5c1.6,1.4,2.5,3.4,2.4,5.5c0.1,1.5-0.3,3-1.1,4.2c-0.6,1-1.5,1.8-2.6,2.3
		c-1,0.4-2,0.7-3.1,0.7c-2.1,0.1-4.2-0.5-5.9-1.8c-1.5-1.3-2.6-3.1-3.1-5c-0.7-2.4-1.2-4.9-1.5-7.4h-1.7c0,3.8,0,6.9-0.1,9.3
		c-0.1,2.3-0.1,4.3-0.2,5.9h1.8c0.1-0.9,0.4-1.8,0.9-2.5c0,0,0.1-0.1,0.1-0.1c0.4-0.3,0.9-0.3,1.3,0.1c0.5,0.4,1,0.8,1.5,1.1
		c0.5,0.3,1,0.6,1.6,0.9c0.9,0.4,1.9,0.6,2.8,0.8c1,0.2,2.1,0.3,3.2,0.3c2.2,0,4.4-0.4,6.4-1.2c1.9-0.8,3.5-2,4.7-3.6
		c1.3-1.7,1.9-3.7,1.8-5.9c0-1.9-0.4-3.8-1.4-5.4C498.6,75.9,497.3,74.5,495.9,73.3z"/>
	<path class="st0" d="M532.1,31.5c1.9-0.5,3.6-0.9,4.9-1.2c1.3-0.3,2.6-0.8,3.7-1.5c1.1-0.5,1.9-1.5,2.3-2.6c0.4-1,0.3-2.1-0.2-3
		c-0.5-1.1-1.5-1.9-2.7-2.2c-1.2-0.3-2.4-0.1-3.5,0.5c-1.2,0.6-2.3,1.5-3.2,2.5l-3.5,3.8c-1.8,1.9-3.7,3.6-5.7,5.2l0.5,0.9
		C527.3,33,529.6,32.2,532.1,31.5z"/>
	<path class="st0" d="M551.1,86.1l-18.5-47.6c-0.8,0-1.7,0.1-2.6,0.1s-1.8-0.1-2.6-0.1L510,83c-0.7,2.2-1.8,4.2-3.2,6
		c-0.9,1-2,1.7-3.3,2v1.5c0.8-0.1,1.6-0.2,2.6-0.2s2,0,3.1,0c1.6,0,3.1,0,4.6,0c1.5,0,3.1,0.1,4.8,0.2V91c-1.3,0-2.7-0.2-3.9-0.6
		c-1-0.3-1.9-1-2.3-2c-0.5-1.3-0.7-2.7-0.4-4.1c0.4-2.4,1.1-4.6,2-6.8l2-5.2h16.5l4.6,12.5c1,2.5,1.2,4.2,0.5,5
		c-0.7,0.8-2.3,1.2-4.9,1.3v1.5c1.2-0.1,2.9-0.2,4.9-0.2s4.3,0,6.6,0c2.1,0,4.2,0,6.2,0c2,0,3.8,0.1,5.4,0.2V91
		c-0.9-0.1-1.7-0.5-2.4-1.1C552.3,88.9,551.5,87.6,551.1,86.1z M516.6,70.6l7.9-20.6l7.5,20.6H516.6z"/>
	<path class="st0" d="M573.7,89.8c-0.7-0.8-1.1-2.2-1.1-4.3V33c-1.7,0.4-3.4,0.7-5.2,0.8c-1.9,0.2-3.9,0.3-5.9,0.3
		c-1.5,0-3.1-0.1-4.7-0.2v1.6c1.8,0,3.2,0.5,3.8,1.6c0.8,1.5,1.1,3.3,1,5v43.3c0,2.1-0.4,3.6-1.1,4.3c-1,0.9-2.4,1.3-3.8,1.1v1.6
		l4.5-0.2c2-0.1,4-0.1,6-0.1s3.9,0,5.8,0.1l4.3,0.2v-1.6C576.1,91.1,574.8,90.7,573.7,89.8z"/>
	<path class="st0" d="M611.6,53.4c-0.7,0-1.4,0-2.2,0l-2.6-0.1c-0.9,0-1.7-0.1-2.5-0.1v1.6c1.4,0,2.8,0.6,3.9,1.5
		c1,1.1,1.6,2.5,1.7,4c0.1,2.3-0.4,4.6-1.2,6.7L603.2,82l-8.7-23c-0.4-1-0.5-2-0.2-3c0.4-0.6,1-1,1.7-1c0.9-0.1,1.9-0.2,2.8-0.1
		v-1.6c-1.5,0.1-3.1,0.2-4.9,0.3s-3.4,0.1-5,0.1c-2.1,0-4,0-5.7-0.1s-3.4-0.2-5-0.3v1.6c0.7,0.1,1.4,0.3,2,0.6
		c0.8,0.4,1.6,1.6,2.4,3.6l13.5,33.6c0.8-0.1,1.6-0.1,2.5-0.1s1.7,0.1,2.5,0.1l11.1-31.4c0.5-1.7,1.4-3.3,2.5-4.8
		c0.7-0.8,1.7-1.5,2.7-1.8v-1.5c-0.7,0.1-1.6,0-2.7,0.1S612.6,53.4,611.6,53.4z"/>
	<path class="st0" d="M653.5,89.9c-0.4,0.2-0.9,0.4-1.3,0.4c-0.5,0-1-0.2-1.3-0.7c-0.3-0.8-0.4-1.7-0.4-2.6V66.2
		c0-2.2-0.1-4.3-0.5-6.4c-0.3-1.6-1.1-3.1-2.3-4.3c-1.3-1.3-2.9-2.2-4.7-2.6c-2.1-0.5-4.2-0.7-6.3-0.7c-2.2,0-4.4,0.2-6.5,0.7
		c-1.8,0.4-3.5,1-5.1,1.9c-1.2,0.7-2.2,1.7-3.1,2.7c-0.8,1.1-1.1,2.3-1.1,3.7c0,1.5,0.5,3,1.4,4.1c1,1.2,2.6,1.8,4.1,1.7
		c1.6,0,3.1-0.5,4.3-1.5c1.2-1,1.8-2.5,1.8-4.1c0-1.3-0.4-2.5-1.2-3.5c-0.8-1.1-2-1.9-3.3-2.3c0.7-0.7,1.6-1.2,2.5-1.4
		c1-0.3,2-0.4,3-0.4c1.2-0.1,2.4,0.2,3.5,0.8c0.9,0.6,1.6,1.4,2,2.4c0.4,1.1,0.7,2.3,0.6,3.5v5.9c0,1.1-0.5,2.2-1.5,2.8
		c-1.2,0.8-2.5,1.5-3.9,1.9c-1.6,0.5-3.2,1.1-5,1.6c-1.7,0.5-3.4,1.3-5,2.1c-1.5,0.8-2.8,2-3.8,3.3c-1,1.6-1.6,3.4-1.5,5.3
		c0,1.6,0.3,3.3,1.1,4.8c0.7,1.5,1.9,2.7,3.3,3.5c1.8,0.9,3.7,1.4,5.7,1.3c2.2,0.1,4.4-0.5,6.3-1.6c1.8-1.2,3.3-2.7,4.4-4.5
		c0,1.1,0.2,2.2,0.7,3.2c0.5,1,1.4,1.7,2.4,2.2c1.4,0.6,2.9,0.9,4.5,0.8c1.6,0,3.2-0.2,4.7-0.7c1.4-0.5,2.6-1.2,3.7-2.1l-0.8-1.3
		C654.4,89.3,654,89.6,653.5,89.9z M639.6,85.1c-0.6,1-1.4,1.8-2.4,2.4c-0.8,0.5-1.8,0.7-2.8,0.7c-1.3,0-2.5-0.5-3.4-1.4
		c-1-1.3-1.4-2.9-1.3-4.5c0-1.4,0.2-2.7,0.8-4c0.5-1.1,1.1-2,2-2.8c0.8-0.8,1.7-1.5,2.6-2.1c0.9-0.6,1.8-1.2,2.6-1.9
		c0.8-0.5,1.4-1.2,1.9-2V85.1z"/>
	<path class="st0" d="M688,53.2c-1.2-0.7-2.6-1.1-4-1c-1.5,0-3,0.3-4.3,1c-1.3,0.6-2.5,1.5-3.5,2.6c-1,1.1-1.8,2.4-2.4,3.7v-7.1
		c-1.7,0.4-3.4,0.6-5.1,0.8c-1.9,0.2-3.9,0.3-6,0.3c-1.5,0-3.1-0.1-4.7-0.2v1.6c1.8,0,3.2,0.5,3.8,1.6c0.8,1.6,1.1,3.3,1,5.1v23.9
		c0,2.1-0.4,3.6-1.1,4.3c-1.1,0.9-2.4,1.3-3.8,1.1v1.6l4.7-0.2c2.1-0.1,4.2-0.1,6.2-0.1c2.4,0,4.8,0,7,0.1l5.1,0.2v-1.6
		c-1.9,0.1-3.7-0.3-5.3-1.3c-1.2-0.9-1.8-2.5-1.8-4.9V64.5c0-1.1,0.2-2.1,0.5-3.2c0.4-1.1,0.8-2.1,1.5-3c0.6-0.9,1.3-1.7,2.2-2.3
		c0.8-0.6,1.8-1,2.8-1.2c0.7-0.3,1.4-0.3,2.1-0.1c-0.9,0.6-1.8,1.5-2.4,2.4c-0.7,1-1,2.3-1,3.5c-0.1,1.3,0.5,2.6,1.5,3.5
		c1.2,0.9,2.6,1.4,4.1,1.3c1.6,0.1,3.2-0.6,4.3-1.8c1.1-1.3,1.7-2.9,1.6-4.6c0-1.2-0.2-2.3-0.7-3.3C689.8,54.7,689,53.8,688,53.2z"
		/>
	<path class="st0" d="M705,69h21.3c0-6-1.3-10.2-3.8-12.9s-6-4-10.5-4c-3.3-0.1-6.6,0.7-9.6,2.3c-2.9,1.6-5.2,4-6.6,7
		c-1.7,3.7-2.5,7.7-2.4,11.8c-0.1,3.9,0.6,7.8,2.2,11.4c1.3,2.8,3.5,5.1,6.2,6.7c2.8,1.5,5.9,2.3,9.1,2.2c2.5,0.1,5.1-0.5,7.3-1.7
		c2-1.1,3.7-2.7,5-4.5c1.3-1.7,2.2-3.6,2.9-5.6l-1.4-0.5c-0.9,1.4-2,2.7-3.3,3.8c-1,0.8-2.2,1.5-3.5,1.9c-1.1,0.3-2.2,0.5-3.3,0.5
		c-1.7,0-3.3-0.5-4.6-1.5c-1.7-1.2-2.9-2.9-3.7-4.8c-1.1-2.7-1.6-5.6-1.5-8.5c0-0.7,0-1.3,0-2C704.9,70,704.9,69.5,705,69z
		 M711.5,53.8c1.3,0,2.4,0.8,3,1.9c0.9,1.6,1.4,3.2,1.7,5c0.4,2.3,0.5,4.6,0.5,6.9h-11.8c0.3-4.8,1-8.3,2.2-10.4
		C708.2,54.9,709.7,53.8,711.5,53.8z"/>
	<path class="st0" d="M761.3,77.8h-1.6c-0.1,2.8-0.8,5.6-2.2,8.1c-1,1.8-2.6,3.3-4.4,4.2c-1.7,0.8-3.6,1.3-5.6,1.2h-4l19-38.5
		c-2.5,0.2-5.1,0.2-7.8,0.3c-2.7,0.1-5.4,0.1-8,0.1c-2.4,0-4.9,0-7.4-0.1s-4.9-0.1-7.2-0.2c0.1,1.6,0.2,3.6,0.2,5.9
		c0,2.3,0.1,5.4,0.1,9.1h1.6c0.2-2.8,0.9-5.6,2.1-8.1c0.9-1.8,2.4-3.3,4.2-4.2c1.7-0.8,3.6-1.3,5.6-1.2h4.3l-19,38.5
		c2.5-0.1,5.1-0.2,7.8-0.3c2.8-0.1,5.6-0.1,8-0.1s5,0,7.4,0.1s4.9,0.1,7.1,0.2c-0.1-1.7-0.1-3.6-0.2-6S761.3,81.5,761.3,77.8z"/>
</g>
<g class="st1">
	<path class="st0" d="M57.3,29.1V34L18.1,59.5l39.2,26.2v13L4.9,63.6v-0.8L57.3,29.1z"/>
	<path class="st0" d="M91.8,63.8l26.2-26c2.6-2.6,4.2-4.3,4.9-5.2c0.6-0.9,1-1.9,1-3.1c0-2-1-3.5-3-4.6c-1-0.5-2.8-0.9-5.2-1.1v-1.4
		h26.7v1.4c-1.8,0.2-3.3,0.5-4.5,0.9c-1.2,0.4-2.5,1.2-4,2.2c-1.6,1.2-4.4,3.6-8.3,7.4l-20,19.2L134,89.9l3.5,4.5
		c2.6,3.2,5.3,5.7,8.1,7.5c1.7,1.1,3.2,1.9,4.5,2.4c1.3,0.5,2.9,0.8,4.8,1.1v1.4H114v-1.4c3.1-0.2,5.3-0.8,6.7-1.5
		c1.4-0.8,2-1.9,2-3.5c0-1.6-0.8-3.8-2.5-6.3c-0.8-1.2-2.4-3.4-4.6-6.4c-2.3-3.1-4.2-5.5-5.8-7.4L95.9,63l-4,4v20.5
		c0,4.2,0.2,7.3,0.7,9.4c0.5,2,1.4,3.7,2.6,5c1.1,1.2,2.4,2,3.9,2.6c1.5,0.6,3.4,0.9,5.8,1v1.4H65.3v-1.4c2.4-0.1,4.3-0.5,5.8-1
		c1.5-0.6,2.8-1.4,3.9-2.6c1.3-1.3,2.2-3,2.7-5c0.5-2,0.7-5.2,0.7-9.4V41.8c0-4.2-0.2-7.4-0.7-9.4c-0.5-2-1.3-3.7-2.7-5
		c-1.1-1.2-2.4-2.1-3.9-2.6c-1.5-0.5-3.4-0.9-5.8-1v-1.4h39.5v1.4c-2.4,0.1-4.3,0.5-5.7,1c-1.5,0.5-2.8,1.4-3.9,2.6
		c-1.3,1.3-2.2,3-2.6,5c-0.5,2-0.7,5.2-0.7,9.4V63.8z"/>
</g>
<g class="st1">
	<path class="st0" d="M154.1,55.4l-0.3-2.6c8.3-1.2,16.6-2.6,24.9-4.1l0.6,0.5c-0.5,7.2-0.7,14.7-0.7,22.3v15.1
		c0,5.4,0,9.8,0.1,13.2c0,1.2,0.6,1.9,1.7,2.2l9.8,2.5l0.2,2.5c-7.6-0.1-13.5-0.2-17.5-0.2c-4,0-9.9,0.1-17.4,0.2l-0.2-2.5l10.1-2.5
		c1.1-0.3,1.6-0.9,1.7-2c0.1-3.3,0.1-7.1,0.1-11.1V78.6c0-8.3-0.1-15.6-0.2-22L154.1,55.4z"/>
</g>
<g class="st1">
	<path class="st0" d="M201.9,130.9c10.3-1.9,18.9-5.8,25.8-11.8c6.8-6,11.6-14.4,14.4-25l-0.1-0.1c-4.8,5.5-11.1,8.2-18.8,8.2
		c-7.7,0-14.1-2.5-19.3-7.4c-5.1-4.9-7.7-11.2-7.7-18.8c0-7.9,2.8-14.6,8.4-19.9c5.6-5.4,12.5-8,20.6-8c8.9,0,16.1,3.2,21.8,9.7
		c5.7,6.5,8.5,14.7,8.5,24.8c0,13.8-4.8,25.5-14.4,35.2c-9.6,9.6-22.4,15.5-38.3,17.6L201.9,130.9z M209.2,72.3
		c0,7.3,1.6,13.2,4.9,17.7c3.3,4.5,7.5,6.7,12.6,6.7c5.1,0,9-1.7,11.7-5c2.7-3.3,4-7.9,4-13.9c0-7.2-1.8-13.2-5.3-18.1
		s-7.8-7.2-12.8-7.2c-4.4,0-8,1.8-10.9,5.3C210.7,61.4,209.2,66.2,209.2,72.3z"/>
</g>
<g class="st1">
	<path class="st0" d="M265.1,98.7v-4.9l39.2-25.5l-39.2-26.2v-13l52.4,35.1V65L265.1,98.7z"/>
</g>
</svg>
